<svg width="24" height="25" viewBox="0 0 24 25" fill="none" xmlns="http://www.w3.org/2000/svg">
	<path d="M18.2413 19.5587C18.2413 22.2878 16.0289 24.5002 13.2998 24.5002C8.89496 24.5002 4.32381 20.8979 2.87887 19.8343C2.6784 19.701 2.6784 19.4163 2.87887 19.2831C4.443 18.2432 10.1251 14.6172 13.2998 14.6172C16.0289 14.6172 18.2413 16.8296 18.2413 19.5587Z" fill="#6AAEE9"/>
	<path d="M5.7587 12.4862C5.7587 9.75713 7.97109 7.54475 10.7002 7.54475C14.6305 7.54475 19.5682 11.0978 21.1211 12.2106C21.3216 12.3439 21.3216 12.6286 21.1211 12.7619C19.557 13.8017 13.8749 17.4277 10.7002 17.4277C7.97109 17.4277 5.7587 15.2154 5.7587 12.4862Z" fill="#6AAEE9"/>
	<path fill-rule="evenodd" clip-rule="evenodd" d="M17.1031 9.62402C18.8712 10.5985 20.353 11.6603 21.0968 12.1933L21.121 12.2107C21.3215 12.344 21.3215 12.6287 21.121 12.762C20.3082 13.3023 18.3832 14.5411 16.276 15.6065C16.2033 15.5531 16.1356 15.4915 16.0735 15.4211C15.0995 14.3174 15.9378 13.4203 16.6302 12.6793C16.9716 12.3139 17.2776 11.9864 17.3133 11.6909C17.4074 10.9105 17.1663 9.87588 17.1031 9.62402Z" fill="#FF9921"/>
	<circle cx="13.9332" cy="10.8929" r="1.03498" fill="black"/>

	<path stroke="#bbb" stroke-width="1" fill-opacity="0" d="M14.5845 0.5H7.77668C7.56909 0.5 7.40842 0.681906 7.43379 0.887935C7.54091 1.75749 7.79783 3.87874 7.90315 5.06037C8.03788 6.57185 8.07565 8.24077 8.07565 8.24077H14.2855C14.2855 8.24077 14.3233 6.57185 14.458 5.06037C14.5633 3.87874 14.8203 1.7575 14.9274 0.887935C14.9527 0.681907 14.7921 0.5 14.5845 0.5Z M5.98413 8.17605C5.98413 7.98551 6.13859 7.83105 6.32912 7.83105H15.9889C16.1794 7.83105 16.3339 7.98551 16.3339 8.17605C16.3339 8.36658 16.1794 8.52104 15.9889 8.52104H6.32912C6.13859 8.52104 5.98413 8.36658 5.98413 8.17605Z" />
	<path fill="black" d="M14.5845 0.5H7.77668C7.56909 0.5 7.40842 0.681906 7.43379 0.887935C7.54091 1.75749 7.79783 3.87874 7.90315 5.06037C8.03788 6.57185 8.07565 8.24077 8.07565 8.24077H14.2855C14.2855 8.24077 14.3233 6.57185 14.458 5.06037C14.5633 3.87874 14.8203 1.7575 14.9274 0.887935C14.9527 0.681907 14.7921 0.5 14.5845 0.5Z" />
	<path fill="black" fill-rule="evenodd" clip-rule="evenodd" d="M5.98413 8.17605C5.98413 7.98551 6.13859 7.83105 6.32912 7.83105H15.9889C16.1794 7.83105 16.3339 7.98551 16.3339 8.17605C16.3339 8.36658 16.1794 8.52104 15.9889 8.52104H6.32912C6.13859 8.52104 5.98413 8.36658 5.98413 8.17605Z" />

	<path fill="#C9F3FB" fill-rule="evenodd" clip-rule="evenodd" d="M14.4025 5.76123H7.9585C8.01626 6.58504 8.0481 7.37256 8.0635 7.83118H14.2975C14.3129 7.37256 14.3448 6.58504 14.4025 5.76123Z" />
</svg>
