<svg width="370" height="97" viewBox="0 0 370 97" fill="none" xmlns="http://www.w3.org/2000/svg">
<path d="M16.909 40.7397L27.1573 24.4065C27.1573 24.4065 30.0325 20.8267 43.9138 20.5703C55.9353 20.3483 71.9536 29.9571 78.4829 34.2414C80.1885 35.3605 80.6776 37.5987 79.6692 39.3721L73.8829 49.5479C72.7804 51.4868 70.9185 52.8774 68.7464 53.3842L62.5458 54.8311C62.5458 54.8311 65.6533 57.041 67.0294 58.9944C70.618 64.0884 69.2712 69.8832 69.2712 69.8832L59.023 88.298C59.023 88.298 55.7688 93.9123 47.5403 95.9027C32.8941 99.4454 11.3673 87.4113 3.45668 82.5341C1.69656 81.4489 1.16533 79.1896 2.17085 77.3828L10.1507 63.044C10.6601 62.1286 11.5084 61.4496 12.5131 61.1529L21.3988 58.5292C21.3988 58.5292 16.0422 55.9451 14.9875 50.6677C14.028 45.8668 16.909 40.7397 16.909 40.7397Z" fill="#90CCF9"/>
<path d="M43.78 58.1671C44.7904 60.5632 46.5071 62.7661 48.8553 64.4381C55.0591 68.8554 63.3221 67.8946 67.3111 62.2922C67.6274 61.8481 67.9073 61.3881 68.1515 60.9153C67.8458 60.2725 67.4757 59.628 67.0294 58.9944C65.7219 57.1384 62.8515 55.0509 62.5683 54.8472L62.5401 54.8534C57.3057 56.0012 50.4198 57.3509 43.78 58.1671Z" fill="url(#paint0_radial_291_470)"/>
<path d="M54.1638 56.1169C58.5074 56.1169 68.3727 53.5645 71.2919 52.7829C71.8251 52.6401 72.2754 52.2905 72.5519 51.8128L81.1224 37.0065C81.3989 36.5289 81.2612 35.9199 80.8036 35.6114C79.8112 34.9424 78.1145 33.8102 76.9248 33.0777C75.1469 31.983 72.5078 30.5537 72.5078 30.5537C72.5078 30.5537 62.9076 26.8617 58.1792 30.5537C53.0719 34.5415 56.8209 42.4103 54.6819 45.7861C53.1513 48.2016 49.2756 49.396 49.2756 52.3281C49.2756 54.9181 51.8893 56.1169 54.1638 56.1169Z" fill="#FF9921"/>
<path d="M65.2255 36.8169C64.8427 37.0876 62.0139 36.2919 62.0002 35.9557C61.9866 35.6196 61.9726 35.6957 62.1049 35.3864C62.4214 34.6465 65.6082 36.5461 65.2255 36.8169Z" fill="black"/>
<path d="M68.7019 34.3498C68.2435 34.448 65.9566 32.6024 66.0765 32.2881C66.1963 31.9737 66.1535 32.0381 66.397 31.8059C66.9793 31.2505 69.1603 34.2517 68.7019 34.3498Z" fill="black"/>
<path d="M14.9874 50.6523C13.8224 46.582 16.9089 40.7243 16.9089 40.7243C23.0081 30.5617 45.7838 38.4987 58.7245 45.0554C64.661 48.0632 68.3397 50.1906 70.3135 51.3976C71.0443 51.8445 70.8742 52.8885 70.0412 53.0879C63.6775 54.6116 44.4395 59.0306 33.239 59.564C28.0059 59.8131 25.0686 59.7636 22.4351 58.8006C18.2427 57.2676 15.9552 54.034 14.9874 50.6523Z" fill="#6800EB" fill-opacity="0.15"/>
<path d="M41.1659 96.5292C49.5814 96.5292 59.4834 92.6499 59.4834 84.2345C59.4834 74.8112 51.1807 68.855 42.7666 68.855C31.3887 68.855 12.7869 75.4413 4.39461 78.652C2.52698 79.3666 2.30337 81.8176 4.02085 82.8417C11.6112 87.3677 28.5355 96.5292 41.1659 96.5292Z" fill="#6800EB" fill-opacity="0.15"/>
<path d="M43.2013 68.7882C32.4458 68.7882 15.9303 74.3153 7.64381 77.3618C7.4828 77.421 7.57112 77.6532 7.73468 77.6015C15.9932 74.9892 32.2795 70.3208 43.2013 70.3208C49.0153 70.3208 54.2577 73.5223 56.7064 77.2905C58.0815 79.4066 58.8508 81.4344 59.2469 82.7214C59.2941 82.8747 59.5119 82.8397 59.4902 82.6808C59.3029 81.305 58.8231 79.1269 57.5943 76.9943C55.098 72.6616 49.3322 68.7882 43.2013 68.7882Z" fill="#3478CD"/>
<path d="M6.19385 84.1737L7.80437 85.0976C7.80437 85.0976 12.6805 83.0519 16.0931 81.6646C18.0677 80.8619 20.8297 79.8211 22.8068 79.0866C22.9634 79.0284 22.8915 78.7991 22.7299 78.842C20.7171 79.3769 17.8947 80.1493 15.7401 80.8263C11.9879 82.0054 6.19385 84.1737 6.19385 84.1737Z" fill="#3478CD"/>
<path d="M13.909 88.3448L15.6908 89.2199C15.6908 89.2199 17.7711 87.9998 19.6286 87.0706C20.8551 86.457 22.3881 85.7538 23.5191 85.2452C23.6676 85.1784 23.5889 84.958 23.4322 85.0023C22.2814 85.327 20.7265 85.7825 19.4044 86.2283C17.0754 87.0136 13.909 88.3448 13.909 88.3448Z" fill="#3478CD"/>
<path d="M49.2756 40.1055C49.2756 41.8523 47.8595 43.2684 46.1127 43.2684C44.3658 43.2684 42.9497 41.8523 42.9497 40.1055C42.9497 38.3586 44.3658 36.9425 46.1127 36.9425C47.8595 36.9425 49.2756 38.3586 49.2756 40.1055Z" fill="black"/>
<path d="M45.8962 37.6993C46.1018 37.9909 45.835 38.5329 45.3002 38.91C44.7655 39.2871 44.1653 39.3563 43.9597 39.0647C43.7541 38.7732 44.0209 38.2311 44.5556 37.854C45.0904 37.477 45.6905 37.4077 45.8962 37.6993Z" fill="white"/>
<ellipse cx="38.8915" cy="28.1277" rx="14.8903" ry="9.65052" transform="rotate(-16.9133 38.8915 28.1277)" fill="url(#paint1_radial_291_470)"/>
<path d="M51.9757 20.2981C53.3756 24.4246 46.7962 30.3867 37.2803 33.6148C27.7644 36.8429 18.9154 36.1147 17.5156 31.9882C16.1158 27.8617 22.6951 21.8997 32.211 18.6716C41.727 15.4434 50.5759 16.1717 51.9757 20.2981Z" fill="black"/>
<path d="M51.7122 19.5074C53.112 23.6339 46.5326 29.5959 37.0167 32.824C27.5008 36.0522 18.6519 35.3239 17.252 31.1975C15.8522 27.071 22.4316 21.1089 31.9475 17.8808C41.4634 14.6527 50.3123 15.381 51.7122 19.5074Z" fill="#4B4B4B"/>
<path d="M44.0253 22.0257C44.822 24.3744 41.0772 27.7678 35.6611 29.6051C30.245 31.4424 25.2084 31.0279 24.4117 28.6793C24.0733 27.6816 22.4238 23.9662 20.6819 20.7164C18.3232 16.3159 15.7634 12.2659 15.7634 12.2659L40.5156 3.60252C40.5156 3.60252 41.2335 8.47399 42.0936 13.1096C42.8843 17.3716 43.8127 21.3993 44.0253 22.0257Z" fill="black"/>
<path d="M44.0253 22.0257C44.822 24.3744 41.0772 27.7678 35.6611 29.6051C30.245 31.4424 25.2084 31.0279 24.4117 28.6793C24.1816 28.001 22.2864 23.8762 22.2864 23.8762C22.2864 23.8762 26.8855 25.9325 33.7459 23.139C40.6062 20.3455 42.7177 16.3034 42.7177 16.3034C42.7177 16.3034 43.8831 21.6067 44.0253 22.0257Z" fill="#C9F3FB"/>
<path d="M40.4129 3.18491C41.4275 6.17578 36.6588 10.4971 29.7616 12.8368C22.8645 15.1766 16.4507 14.6488 15.4361 11.6579C14.4215 8.66702 19.1903 4.34571 26.0874 2.00596C32.9846 -0.333791 39.3983 0.194044 40.4129 3.18491Z" fill="#4B4B4B"/>
<path d="M327.13 39.5302C326.135 38.5331 325.693 37.4253 325.693 36.0406C325.693 34.6558 326.135 33.4372 327.13 32.4402C328.126 31.4985 329.287 31 330.614 31C331.996 31 333.213 31.4985 334.208 32.4402C335.148 33.4372 335.646 34.6558 335.646 36.0406C335.646 37.4253 335.148 38.5331 334.208 39.5302C333.213 40.5272 331.996 41.0257 330.614 41.0257C329.287 41.0257 328.126 40.5272 327.13 39.5302Z" fill="#58595B"/>
<path d="M326.633 45.6231H334.706V73.1523H326.633V45.6231Z" fill="#58595B"/>
<path fill-rule="evenodd" clip-rule="evenodd" d="M370 73.1523H362.203V69.6627H362.093C360.268 72.3215 357.448 73.7062 353.577 73.7062C349.706 73.7062 346.223 71.9337 344.011 69.275C341.799 66.6716 340.472 63.0712 340.472 59.36C340.472 52.3808 345.78 45.0692 353.688 45.0692C354.738 45.0692 355.678 45.18 357.282 45.6232C358.885 46.0663 360.544 47.1741 361.871 48.7804H361.982V31.1662H370V73.1523ZM360.268 64.4006C361.54 63.0712 362.203 61.4095 362.203 59.36C362.203 57.3106 361.54 55.6489 360.268 54.3195C358.941 52.9901 357.337 52.3808 355.402 52.3808C353.522 52.3808 351.918 52.9901 350.591 54.3195C349.264 55.6489 348.6 57.3106 348.6 59.36C348.6 61.4095 349.264 63.0712 350.591 64.4006C351.863 65.73 353.466 66.3947 355.402 66.3947C357.337 66.3947 358.941 65.73 360.268 64.4006Z" fill="#58595B"/>
<path d="M311.135 31.1108V73.1523H319.208V31.1108H311.135Z" fill="#58595B"/>
<path fill-rule="evenodd" clip-rule="evenodd" d="M275.401 59.4708C275.401 56.7567 276.119 54.3195 277.446 52.1039C278.774 49.8882 280.598 48.1157 282.921 46.8417C285.243 45.6231 287.732 44.9585 290.496 44.9585C293.206 44.9585 295.75 45.5678 298.017 46.8417C300.284 48.0603 302.109 49.7774 303.436 51.9931C304.763 54.1533 305.426 56.5905 305.426 59.3046C305.426 62.0188 304.763 64.456 303.436 66.6716C302.053 68.9426 300.228 70.6597 297.961 71.8783C295.639 73.1523 293.095 73.7616 290.386 73.7616C287.621 73.7616 285.133 73.1523 282.81 71.9337C280.543 70.6597 278.774 68.998 277.446 66.7824C276.119 64.5668 275.401 62.1296 275.401 59.4708ZM285.575 54.3195C284.303 55.6489 283.64 57.3106 283.64 59.36C283.64 61.4095 284.303 63.0712 285.575 64.4006C286.902 65.73 288.506 66.3947 290.441 66.3947C292.321 66.3947 293.925 65.73 295.252 64.4006C296.579 63.1266 297.187 61.4095 297.187 59.36C297.187 57.3106 296.579 55.6489 295.252 54.3195C293.925 52.9901 292.321 52.3254 290.386 52.3254C288.506 52.3254 286.902 52.9901 285.575 54.3195Z" fill="#58595B"/>
<path d="M245.222 70.4382C247.931 72.6538 251.581 73.7616 256.281 73.7616C260.926 73.7616 264.852 72.2107 267.34 69.8289C269.718 67.3917 271.1 64.3452 271.1 61.188C271.1 58.2522 270.105 55.7043 268.17 53.544C266.179 51.3838 263.359 49.999 259.709 49.3343L254.069 48.2819C251.304 47.728 249.922 46.1217 249.922 44.0722C249.922 42.909 250.475 41.8566 251.581 40.9704C252.742 40.0841 254.124 39.641 255.783 39.641C259.82 39.641 262.142 41.8012 262.861 45.1247L270.437 42.909C270.05 40.1949 268.723 37.7023 266.4 35.5421C264.078 33.4926 260.318 32.1632 255.894 32.1632C252.078 32.1632 248.429 33.548 245.83 35.7082C243.286 37.9239 241.627 41.1919 241.627 44.7369C241.627 47.728 242.568 50.276 244.503 52.3254C246.438 54.3195 249.092 55.7043 252.355 56.3136L258.05 57.4768C260.871 57.9753 262.64 59.6924 262.64 61.6865C262.64 62.9605 262.087 64.0683 260.981 64.9545C259.931 65.8408 258.438 66.2285 256.557 66.2285C254.29 66.2285 252.41 65.6746 250.807 64.456C249.203 63.2374 248.263 61.5203 247.931 59.4155L240.134 61.2433C240.798 65.1761 242.512 68.2226 245.222 70.4382Z" fill="#58595B"/>
<path fill-rule="evenodd" clip-rule="evenodd" d="M211.138 87C209.405 87 207.875 86.4276 206.548 85.2829C205.258 84.1751 204.613 82.7534 204.613 81.0178C204.613 79.393 205.018 78.0636 205.829 77.0297C206.64 75.9957 207.691 75.1833 208.981 74.5925C210.271 74.0017 212.004 73.3739 214.179 72.7092L214.732 70.272C212.852 72.4138 210.603 73.4847 207.986 73.4847C206.216 73.4847 204.779 72.9308 203.673 71.823C202.604 70.7151 202.069 69.0534 202.069 66.8378C202.069 66.5908 202.08 66.3239 202.101 66.0372C200.383 67.5848 198.477 68.9595 196.383 70.1612C195.314 71.306 193.987 72.1553 192.402 72.7092C190.853 73.2262 189.287 73.4847 187.701 73.4847C185.932 73.4847 184.439 73.1523 183.222 72.4876C182.006 71.786 181.103 70.8998 180.513 69.8289C180.051 68.9618 179.77 68.0721 179.67 67.1597C178.309 68.2578 176.842 69.2583 175.269 70.1612C174.2 71.306 172.873 72.1553 171.288 72.7092C169.739 73.2262 168.173 73.4847 166.587 73.4847C164.818 73.4847 163.325 73.1523 162.108 72.4876C160.892 71.786 159.989 70.8998 159.399 69.8289C159.367 69.7696 159.337 69.7102 159.307 69.6506C158.736 70.3521 158.134 70.9285 157.498 71.3798C155.508 72.7831 153.499 73.4847 151.471 73.4847C149.923 73.4847 148.669 73.06 147.711 72.2107C146.789 71.3244 146.236 70.0505 146.052 68.3887C144.983 69.9028 143.785 71.1398 142.458 72.0999C141.168 73.0231 139.619 73.4847 137.813 73.4847C135.712 73.4847 133.961 72.7646 132.56 71.3244C131.861 70.6064 131.337 69.6863 130.987 68.5643C130.164 69.7753 129.257 70.7138 128.269 71.3798C126.131 72.7831 124.011 73.4847 121.91 73.4847C120.14 73.4847 118.702 72.9308 117.597 71.8229C116.579 70.7687 116.046 69.2129 115.997 67.1554C115.351 68.0369 114.611 68.8358 113.777 69.5519C111.971 71.1029 110.036 72.2476 107.971 72.9862C105.907 73.6878 103.953 74.0386 102.11 74.0386C97.9442 74.0386 94.8845 72.9862 92.9307 70.8813C90.9769 68.7765 90 65.2869 90 60.4125C90 56.5351 90.6451 52.3624 91.9354 47.8942C93.2625 43.426 95.3637 39.604 98.2391 36.4283C101.151 33.2156 104.838 31.6093 109.298 31.6093C112.063 31.6093 114.293 32.2186 115.989 33.4372C117.685 34.6558 118.533 36.5206 118.533 39.0317C118.533 40.6195 118.219 41.8751 117.593 42.7982C116.966 43.6845 115.989 44.1276 114.662 44.1276C113.335 44.1276 112.284 43.6476 111.51 42.6875C112.174 42.3551 112.764 41.6904 113.28 40.6934C113.796 39.6964 114.054 38.6624 114.054 37.5915C114.054 36.5945 113.777 35.7821 113.224 35.1543C112.708 34.5266 111.86 34.2127 110.681 34.2127C108.727 34.2127 106.865 35.5605 105.096 38.2562C103.326 40.915 101.889 44.2753 100.783 48.3373C99.7137 52.3993 99.1792 56.3136 99.1792 60.0801C99.1792 62.8866 99.6584 65.0284 100.617 66.5054C101.575 67.9825 103.308 68.7211 105.815 68.7211C107.99 68.7211 109.999 68.241 111.842 67.2809C113.592 66.3694 115.109 65.0919 116.394 63.4482C116.407 63.3786 116.421 63.3083 116.435 63.2374L122.352 35.4867L130.536 34.3788L124.177 64.2898C124.029 64.8437 123.956 65.4346 123.956 66.0623C123.956 66.8009 124.121 67.3363 124.453 67.6686C124.822 67.9641 125.412 68.1118 126.223 68.1118C127.292 68.1118 128.287 67.6686 129.209 66.7824C129.701 66.289 130.12 65.7217 130.465 65.0807C130.461 64.912 130.458 64.7407 130.458 64.5668C130.458 61.8342 130.993 58.9723 132.062 55.9812C133.168 52.9532 134.79 50.4052 136.928 48.3373C139.103 46.2325 141.684 45.18 144.67 45.18C146.181 45.18 147.305 45.4385 148.043 45.9555C148.78 46.4725 149.149 47.1556 149.149 48.005V48.3927L149.757 45.457H157.72L153.738 64.2898C153.591 64.8437 153.517 65.4346 153.517 66.0623C153.517 67.6502 154.273 68.4441 155.784 68.4441C156.816 68.4441 157.701 67.9641 158.438 67.004C158.47 66.9652 158.501 66.926 158.531 66.8863C158.52 66.7231 158.514 66.5593 158.514 66.3947C158.514 65.1761 158.809 64.1236 159.399 63.2374C159.952 62.3142 160.634 61.6495 161.445 61.2433C162.883 58.6584 164.136 56.0551 165.205 53.4332C166.274 50.7745 167.288 47.9126 168.246 44.8477L176.43 43.7399C176.614 48.4665 176.928 53.5809 177.37 59.0831C177.554 61.2987 177.647 62.905 177.647 63.9021C177.647 64.7514 177.573 65.453 177.425 66.0069C178.387 65.4538 179.223 64.9234 179.935 64.4157C180.077 63.9948 180.27 63.602 180.513 63.2374C181.066 62.3142 181.748 61.6495 182.559 61.2433C183.997 58.6584 185.25 56.0551 186.319 53.4332C187.388 50.7745 188.402 47.9126 189.36 44.8477L197.544 43.7399C197.728 48.4665 198.042 53.5809 198.484 59.0831C198.668 61.2987 198.761 62.905 198.761 63.9021C198.761 64.7514 198.687 65.453 198.539 66.0069C200.265 65.014 201.588 64.0943 202.509 63.2478L202.512 63.2374L206.272 45.457H214.234L210.253 64.2898C210.142 64.7329 210.087 65.1945 210.087 65.6746C210.087 67.2994 210.64 68.1118 211.746 68.1118C212.778 68.1118 213.663 67.6871 214.4 66.8378C215.138 65.9515 215.727 64.7514 216.17 63.2374L219.93 45.457H227.948L221.202 77.5836C220.464 81.1286 219.156 83.5842 217.276 84.9505C215.432 86.3168 213.386 87 211.138 87ZM161.687 65.5704C161.958 65.8245 162.375 65.9515 162.938 65.9515C163.638 65.9515 164.21 65.6746 164.652 65.1207C165.131 64.5668 165.371 63.939 165.371 63.2374C165.371 62.3881 164.947 61.7418 164.099 61.2987C166.2 57.2367 167.693 53.7471 168.578 50.8299C168.689 52.27 168.928 55.095 169.297 59.3047C169.518 61.2987 169.629 62.8497 169.629 63.9575C169.629 65.7669 169.168 67.0778 168.246 67.8902C167.325 68.7026 166.182 69.1088 164.818 69.1088C163.638 69.1088 162.772 68.7949 162.219 68.1672C161.813 67.6733 161.567 66.9623 161.48 66.0341C161.55 65.8822 161.619 65.7276 161.687 65.5704ZM209.866 82.0702C210.53 82.0702 211.156 81.7194 211.746 81.0178C212.336 80.3531 212.797 79.2638 213.128 77.7498L213.792 74.4817C211.838 75.1464 210.327 75.9219 209.258 76.8081C208.189 77.6944 207.654 78.8391 207.654 80.2423C207.654 80.6855 207.875 81.0917 208.318 81.4609C208.76 81.8671 209.276 82.0702 209.866 82.0702ZM189.36 67.8902C188.439 68.7026 187.296 69.1088 185.932 69.1088C184.752 69.1088 183.886 68.7949 183.333 68.1672C182.817 67.5394 182.559 66.5608 182.559 65.2315C182.78 65.7115 183.278 65.9515 184.052 65.9515C184.752 65.9515 185.324 65.6746 185.766 65.1207C186.245 64.5668 186.485 63.939 186.485 63.2374C186.485 62.3881 186.061 61.7418 185.213 61.2987C187.314 57.2367 188.807 53.7471 189.692 50.8299C189.803 52.27 190.042 55.095 190.411 59.3047C190.632 61.2987 190.743 62.8497 190.743 63.9575C190.743 65.7669 190.282 67.0778 189.36 67.8902ZM144.117 66.8378C143.232 67.6871 142.329 68.1118 141.407 68.1118C140.633 68.1118 139.969 67.8533 139.416 67.3363C138.9 66.8193 138.642 65.6377 138.642 63.7913C138.642 61.945 138.974 59.8216 139.638 57.4214C140.301 54.9842 141.223 52.9163 142.402 51.2176C143.582 49.4821 144.909 48.6143 146.384 48.6143C147.158 48.6143 147.729 48.8543 148.098 49.3343C148.467 49.7775 148.651 50.2391 148.651 50.7191L145.997 63.2374C145.665 64.7514 145.038 65.9516 144.117 66.8378Z" fill="#58595B"/>
<defs>
<radialGradient id="paint0_radial_291_470" cx="0" cy="0" r="1" gradientUnits="userSpaceOnUse" gradientTransform="translate(55.4631 55.7331) rotate(127.279) scale(11.3285 12.7959)">
<stop stop-color="#3478CD"/>
<stop offset="1" stop-color="#3478CD" stop-opacity="0"/>
</radialGradient>
<radialGradient id="paint1_radial_291_470" cx="0" cy="0" r="1" gradientUnits="userSpaceOnUse" gradientTransform="translate(38.8915 28.1277) rotate(90) scale(9.65052 14.8903)">
<stop offset="0.08" stop-color="#3478CD"/>
<stop offset="1" stop-color="#3478CD" stop-opacity="0"/>
</radialGradient>
</defs>
</svg>
