<svg width="370" height="97" viewBox="0 0 370 97" fill="none" xmlns="http://www.w3.org/2000/svg">
<path d="M327.13 39.5302C326.135 38.5331 325.693 37.4253 325.693 36.0405C325.693 34.6558 326.135 33.4372 327.13 32.4401C328.126 31.4985 329.287 31 330.614 31C331.996 31 333.213 31.4985 334.208 32.4401C335.148 33.4372 335.646 34.6558 335.646 36.0405C335.646 37.4253 335.148 38.5331 334.208 39.5302C333.213 40.5272 331.996 41.0257 330.614 41.0257C329.287 41.0257 328.126 40.5272 327.13 39.5302Z" fill="black"/>
<path d="M326.633 45.6231H334.706V73.1523H326.633V45.6231Z" fill="black"/>
<path fill-rule="evenodd" clip-rule="evenodd" d="M370 73.1523H362.203V69.6627H362.093C360.268 72.3215 357.448 73.7062 353.577 73.7062C349.706 73.7062 346.223 71.9337 344.011 69.275C341.799 66.6716 340.472 63.0712 340.472 59.36C340.472 52.3808 345.78 45.0692 353.688 45.0692C354.738 45.0692 355.678 45.18 357.282 45.6231C358.885 46.0663 360.544 47.1741 361.871 48.7804H361.982V31.1662H370V73.1523ZM360.268 64.4006C361.54 63.0712 362.203 61.4095 362.203 59.36C362.203 57.3106 361.54 55.6489 360.268 54.3195C358.941 52.9901 357.337 52.3808 355.402 52.3808C353.522 52.3808 351.918 52.9901 350.591 54.3195C349.264 55.6489 348.6 57.3106 348.6 59.36C348.6 61.4095 349.264 63.0712 350.591 64.4006C351.863 65.73 353.466 66.3946 355.402 66.3946C357.337 66.3946 358.941 65.73 360.268 64.4006Z" fill="black"/>
<path d="M311.135 31.1108V73.1523H319.208V31.1108H311.135Z" fill="black"/>
<path fill-rule="evenodd" clip-rule="evenodd" d="M275.401 59.4708C275.401 56.7567 276.119 54.3195 277.446 52.1038C278.774 49.8882 280.598 48.1157 282.921 46.8417C285.243 45.6231 287.732 44.9584 290.496 44.9584C293.206 44.9584 295.75 45.5677 298.017 46.8417C300.284 48.0603 302.109 49.7774 303.436 51.9931C304.763 54.1533 305.426 56.5905 305.426 59.3046C305.426 62.0188 304.763 64.456 303.436 66.6716C302.053 68.9426 300.228 70.6597 297.961 71.8783C295.639 73.1523 293.095 73.7616 290.386 73.7616C287.621 73.7616 285.133 73.1523 282.81 71.9337C280.543 70.6597 278.774 68.998 277.446 66.7824C276.119 64.5667 275.401 62.1296 275.401 59.4708ZM285.575 54.3195C284.303 55.6489 283.64 57.3106 283.64 59.36C283.64 61.4095 284.303 63.0712 285.575 64.4006C286.902 65.73 288.506 66.3946 290.441 66.3946C292.321 66.3946 293.925 65.73 295.252 64.4006C296.579 63.1266 297.187 61.4095 297.187 59.36C297.187 57.3106 296.579 55.6489 295.252 54.3195C293.925 52.9901 292.321 52.3254 290.386 52.3254C288.506 52.3254 286.902 52.9901 285.575 54.3195Z" fill="black"/>
<path d="M245.222 70.4382C247.931 72.6538 251.581 73.7616 256.281 73.7616C260.926 73.7616 264.852 72.2107 267.34 69.8289C269.718 67.3917 271.1 64.3452 271.1 61.1879C271.1 58.2522 270.105 55.7043 268.17 53.544C266.179 51.3838 263.359 49.999 259.709 49.3343L254.069 48.2819C251.304 47.728 249.922 46.1217 249.922 44.0722C249.922 42.909 250.475 41.8566 251.581 40.9703C252.742 40.0841 254.124 39.641 255.783 39.641C259.82 39.641 262.142 41.8012 262.861 45.1246L270.437 42.909C270.05 40.1949 268.723 37.7023 266.4 35.5421C264.078 33.4926 260.318 32.1632 255.894 32.1632C252.078 32.1632 248.429 33.548 245.83 35.7082C243.286 37.9238 241.627 41.1919 241.627 44.7369C241.627 47.728 242.568 50.276 244.503 52.3254C246.438 54.3195 249.092 55.7043 252.355 56.3136L258.05 57.4768C260.871 57.9753 262.64 59.6924 262.64 61.6865C262.64 62.9604 262.087 64.0683 260.981 64.9545C259.931 65.8408 258.438 66.2285 256.557 66.2285C254.29 66.2285 252.41 65.6746 250.807 64.456C249.203 63.2374 248.263 61.5203 247.931 59.4154L240.134 61.2433C240.798 65.1761 242.512 68.2226 245.222 70.4382Z" fill="black"/>
<path fill-rule="evenodd" clip-rule="evenodd" d="M211.138 87C209.405 87 207.875 86.4276 206.548 85.2829C205.258 84.1751 204.613 82.7534 204.613 81.0178C204.613 79.393 205.018 78.0636 205.829 77.0297C206.64 75.9957 207.691 75.1833 208.981 74.5925C210.271 74.0016 212.004 73.3739 214.179 72.7092L214.732 70.272C212.852 72.4138 210.603 73.4847 207.986 73.4847C206.216 73.4847 204.779 72.9307 203.673 71.8229C202.604 70.7151 202.069 69.0534 202.069 66.8378C202.069 66.5907 202.08 66.3239 202.101 66.0372C200.383 67.5848 198.477 68.9594 196.383 70.1612C195.314 71.306 193.987 72.1553 192.402 72.7092C190.853 73.2262 189.287 73.4847 187.701 73.4847C185.932 73.4847 184.439 73.1523 183.222 72.4876C182.006 71.786 181.103 70.8998 180.513 69.8289C180.051 68.9618 179.77 68.0721 179.67 67.1597C178.309 68.2578 176.842 69.2583 175.269 70.1612C174.2 71.306 172.873 72.1553 171.288 72.7092C169.739 73.2262 168.173 73.4847 166.587 73.4847C164.818 73.4847 163.325 73.1523 162.108 72.4876C160.892 71.786 159.989 70.8998 159.399 69.8289C159.367 69.7696 159.337 69.7101 159.307 69.6506C158.736 70.3521 158.134 70.9285 157.498 71.3798C155.508 72.7831 153.499 73.4847 151.471 73.4847C149.923 73.4847 148.669 73.06 147.711 72.2107C146.789 71.3244 146.236 70.0504 146.052 68.3887C144.983 69.9027 143.785 71.1398 142.458 72.0999C141.168 73.0231 139.619 73.4847 137.813 73.4847C135.712 73.4847 133.961 72.7646 132.56 71.3244C131.861 70.6064 131.337 69.6863 130.987 68.5643C130.164 69.7753 129.257 70.7138 128.269 71.3798C126.131 72.783 124.011 73.4847 121.91 73.4847C120.14 73.4847 118.702 72.9307 117.597 71.8229C116.579 70.7687 116.046 69.2129 115.997 67.1554C115.351 68.0369 114.611 68.8358 113.777 69.5519C111.971 71.1029 110.036 72.2476 107.971 72.9861C105.907 73.6878 103.953 74.0386 102.11 74.0386C97.9442 74.0386 94.8845 72.9861 92.9307 70.8813C90.9769 68.7765 90 65.2868 90 60.4125C90 56.5351 90.6451 52.3623 91.9354 47.8942C93.2625 43.426 95.3637 39.604 98.2391 36.4283C101.151 33.2156 104.838 31.6093 109.298 31.6093C112.063 31.6093 114.293 32.2186 115.989 33.4372C117.685 34.6558 118.533 36.5206 118.533 39.0317C118.533 40.6195 118.219 41.875 117.593 42.7982C116.966 43.6845 115.989 44.1276 114.662 44.1276C113.335 44.1276 112.284 43.6475 111.51 42.6874C112.174 42.3551 112.764 41.6904 113.28 40.6934C113.796 39.6963 114.054 38.6624 114.054 37.5915C114.054 36.5945 113.777 35.7821 113.224 35.1543C112.708 34.5265 111.86 34.2127 110.681 34.2127C108.727 34.2127 106.865 35.5605 105.096 38.2562C103.326 40.9149 101.889 44.2753 100.783 48.3373C99.7137 52.3993 99.1792 56.3136 99.1792 60.0801C99.1792 62.8866 99.6584 65.0283 100.617 66.5054C101.575 67.9825 103.308 68.7211 105.815 68.7211C107.99 68.7211 109.999 68.241 111.842 67.2809C113.592 66.3694 115.109 65.0918 116.394 63.4482C116.407 63.3785 116.421 63.3083 116.435 63.2374L122.352 35.4866L130.536 34.3788L124.177 64.2898C124.029 64.8437 123.956 65.4345 123.956 66.0623C123.956 66.8008 124.121 67.3363 124.453 67.6686C124.822 67.9641 125.412 68.1118 126.223 68.1118C127.292 68.1118 128.287 67.6686 129.209 66.7824C129.701 66.289 130.12 65.7217 130.465 65.0807C130.461 64.912 130.458 64.7407 130.458 64.5668C130.458 61.8342 130.993 58.9723 132.062 55.9812C133.168 52.9532 134.79 50.4052 136.928 48.3373C139.103 46.2325 141.684 45.18 144.67 45.18C146.181 45.18 147.305 45.4385 148.043 45.9555C148.78 46.4725 149.149 47.1556 149.149 48.005V48.3927L149.757 45.457H157.72L153.738 64.2898C153.591 64.8437 153.517 65.4346 153.517 66.0623C153.517 67.6502 154.273 68.4441 155.784 68.4441C156.816 68.4441 157.701 67.9641 158.438 67.004C158.47 66.9652 158.501 66.926 158.531 66.8863C158.52 66.7231 158.514 66.5592 158.514 66.3946C158.514 65.1761 158.809 64.1236 159.399 63.2374C159.952 62.3142 160.634 61.6495 161.445 61.2433C162.883 58.6584 164.136 56.055 165.205 53.4332C166.274 50.7745 167.288 47.9126 168.246 44.8477L176.43 43.7399C176.614 48.4665 176.928 53.5809 177.37 59.0831C177.554 61.2987 177.647 62.905 177.647 63.9021C177.647 64.7514 177.573 65.453 177.425 66.0069C178.387 65.4538 179.223 64.9234 179.935 64.4157C180.077 63.9948 180.27 63.602 180.513 63.2374C181.066 62.3142 181.748 61.6495 182.559 61.2433C183.997 58.6584 185.25 56.055 186.319 53.4332C187.388 50.7745 188.402 47.9126 189.36 44.8477L197.544 43.7399C197.728 48.4665 198.042 53.5809 198.484 59.0831C198.668 61.2987 198.761 62.905 198.761 63.9021C198.761 64.7514 198.687 65.453 198.539 66.0069C200.265 65.0139 201.588 64.0942 202.509 63.2478L202.512 63.2374L206.272 45.457H214.234L210.253 64.2898C210.142 64.7329 210.087 65.1945 210.087 65.6746C210.087 67.2994 210.64 68.1118 211.746 68.1118C212.778 68.1118 213.663 67.6871 214.4 66.8378C215.138 65.9515 215.727 64.7514 216.17 63.2374L219.93 45.457H227.948L221.202 77.5836C220.464 81.1286 219.156 83.5842 217.276 84.9505C215.432 86.3168 213.386 87 211.138 87ZM161.687 65.5704C161.958 65.8245 162.375 65.9515 162.938 65.9515C163.638 65.9515 164.21 65.6746 164.652 65.1207C165.131 64.5668 165.371 63.939 165.371 63.2374C165.371 62.3881 164.947 61.7418 164.099 61.2987C166.2 57.2367 167.693 53.7471 168.578 50.8299C168.689 52.27 168.928 55.0949 169.297 59.3046C169.518 61.2987 169.629 62.8496 169.629 63.9575C169.629 65.7669 169.168 67.0778 168.246 67.8902C167.325 68.7026 166.182 69.1088 164.818 69.1088C163.638 69.1088 162.772 68.7949 162.219 68.1671C161.813 67.6733 161.567 66.9623 161.48 66.0341C161.55 65.8822 161.619 65.7276 161.687 65.5704ZM209.866 82.0702C210.53 82.0702 211.156 81.7194 211.746 81.0178C212.336 80.3531 212.797 79.2638 213.128 77.7497L213.792 74.4817C211.838 75.1464 210.327 75.9218 209.258 76.8081C208.189 77.6944 207.654 78.8391 207.654 80.2423C207.654 80.6854 207.875 81.0916 208.318 81.4609C208.76 81.8671 209.276 82.0702 209.866 82.0702ZM189.36 67.8902C188.439 68.7026 187.296 69.1088 185.932 69.1088C184.752 69.1088 183.886 68.7949 183.333 68.1671C182.817 67.5394 182.559 66.5608 182.559 65.2314C182.78 65.7115 183.278 65.9515 184.052 65.9515C184.752 65.9515 185.324 65.6746 185.766 65.1207C186.245 64.5668 186.485 63.939 186.485 63.2374C186.485 62.3881 186.061 61.7418 185.213 61.2987C187.314 57.2367 188.807 53.7471 189.692 50.8299C189.803 52.27 190.042 55.0949 190.411 59.3046C190.632 61.2987 190.743 62.8496 190.743 63.9575C190.743 65.7669 190.282 67.0778 189.36 67.8902ZM144.117 66.8378C143.232 67.6871 142.329 68.1118 141.407 68.1118C140.633 68.1118 139.969 67.8533 139.416 67.3363C138.9 66.8193 138.642 65.6377 138.642 63.7913C138.642 61.9449 138.974 59.8216 139.638 57.4214C140.301 54.9842 141.223 52.9163 142.402 51.2176C143.582 49.482 144.909 48.6143 146.384 48.6143C147.158 48.6143 147.729 48.8543 148.098 49.3343C148.467 49.7775 148.651 50.239 148.651 50.7191L145.997 63.2374C145.665 64.7514 145.038 65.9515 144.117 66.8378Z" fill="black"/>
<path fill-rule="evenodd" clip-rule="evenodd" d="M16.2848 41.0513L19.6201 35.7357C20.7766 36.1974 22.1518 36.4845 23.6697 36.6094C27.3694 36.9139 32.0637 36.2667 36.8943 34.628C41.7249 32.9893 45.844 30.6467 48.5949 28.1539C49.9693 26.9084 51.0295 25.6008 51.6527 24.2969C51.9903 23.5906 52.2053 22.8719 52.2641 22.1608C58.0551 23.7303 64.0057 26.5136 68.9656 29.2181C68.2518 29.0457 67.4523 28.8793 66.6055 28.7486C63.5916 28.2836 59.7263 28.2301 57.0992 30.2814C54.2472 32.5082 53.9208 35.8053 53.9525 38.7191C53.9596 39.3667 53.9829 39.9749 54.0053 40.558C54.0359 41.3525 54.0646 42.1006 54.0478 42.8373C54.0192 44.0861 53.8529 45.0369 53.432 45.7012C53.107 46.2141 52.6417 46.6856 52.0843 47.1649C51.8072 47.4031 51.5158 47.6363 51.2141 47.8757L51.1034 47.9635C50.8395 48.1726 50.5682 48.3876 50.3063 48.6059C49.1395 49.5785 47.9107 50.8061 47.9107 52.6397C47.9107 54.2259 48.727 55.3872 49.8325 56.1223C50.9156 56.8423 52.288 57.1693 53.5397 57.1693C55.6444 57.1693 58.923 56.6017 62.0672 55.9351C62.3028 55.8852 62.538 55.8345 62.7724 55.7835C63.7945 56.5822 65.486 58.0013 66.4052 59.306C69.9937 64.4 68.647 70.1948 68.647 70.1948L58.3987 88.6096C58.3987 88.6096 55.1445 94.2239 46.916 96.2143C37.3325 98.5324 24.8028 94.1811 15.0696 89.5296C15.1598 89.4768 17.1885 88.2906 19.0042 87.3822C19.7793 86.9945 20.6768 86.5709 21.5178 86.1833C21.795 86.0556 21.6474 85.6468 21.3548 85.7334C20.5082 85.9837 19.5994 86.2637 18.7801 86.5399C16.4511 87.3252 13.2846 88.6565 13.2846 88.6565L14.7765 89.3891C8.63088 86.4314 3.63659 83.3784 1.26489 81.862C0.404502 81.3119 0.151591 80.2011 0.648196 79.3088L9.92871 62.6328C10.1803 62.1806 10.5993 61.8453 11.0955 61.6988L20.7745 58.8408C20.7745 58.8408 15.4179 56.2567 14.3632 50.9793C13.4038 46.1784 16.2848 41.0513 16.2848 41.0513ZM48.6515 40.4171C48.6515 42.1639 47.2354 43.58 45.4885 43.58C43.7417 43.58 42.3256 42.1639 42.3256 40.4171C42.3256 38.6703 43.7417 37.2542 45.4885 37.2542C47.2354 37.2542 48.6515 38.6703 48.6515 40.4171ZM42.577 69.0998C33.5291 69.0998 20.4048 73.0113 11.5324 76.0669C11.2285 76.1716 11.3793 76.6047 11.6876 76.5137C20.4936 73.9136 33.4206 70.6324 42.577 70.6324C48.3911 70.6324 53.6334 73.8339 56.0822 77.6022C57.0858 79.1467 57.7668 80.6442 58.2155 81.841C58.3209 82.1224 58.7114 82.0459 58.6484 81.7521C58.3735 80.471 57.8748 78.8761 56.9701 77.3059C54.4737 72.9732 48.708 69.0998 42.577 69.0998ZM5.56956 84.4853L7.18009 85.4092C7.18009 85.4092 12.0562 83.3635 15.4688 81.9762C16.7937 81.4376 18.4731 80.7919 20.0319 80.2034C20.3249 80.0928 20.1908 79.6694 19.8888 79.7523C18.2935 80.1906 16.5556 80.6855 15.1158 81.138C11.3636 82.3171 5.56956 84.4853 5.56956 84.4853Z" fill="black"/>
<path fill-rule="evenodd" clip-rule="evenodd" d="M71.2641 52.6474C70.8436 52.9515 70.3628 53.173 69.8466 53.2935L61.9923 55.1937C58.8174 55.869 55.5733 56.4285 53.5397 56.4285C51.2652 56.4285 48.6515 55.2297 48.6515 52.6397C48.6515 50.8523 50.0919 49.7106 51.5632 48.5443C52.5054 47.7975 53.4602 47.0406 54.0578 46.0977C54.9055 44.7597 54.8284 42.716 54.7443 40.4879C54.6162 37.0942 54.472 33.2726 57.5551 30.8653C62.2835 27.1733 71.8837 30.8653 71.8837 30.8653C71.8837 30.8653 71.9156 30.8826 71.9747 30.9148C75.2403 32.816 77.8524 34.5305 79.3679 35.5603C80.2013 36.1266 80.4397 37.2308 79.9417 38.1067L74.366 47.9121L72.3047 51.4732C72.0371 51.9355 71.6824 52.3339 71.2641 52.6474ZM64.6014 37.1285C64.2187 37.3992 61.3899 36.6035 61.3762 36.2674C61.3748 36.2315 61.3733 36.2003 61.372 36.1729C61.3673 36.0717 61.3649 36.0211 61.3738 35.9726C61.3828 35.9241 61.403 35.8777 61.4434 35.7849C61.4543 35.7597 61.4668 35.731 61.4809 35.698C61.7974 34.9581 64.9842 36.8577 64.6014 37.1285ZM65.4525 32.5997C65.3326 32.914 67.6194 34.7596 68.0779 34.6615C68.5363 34.5633 66.3553 31.5622 65.7729 32.1176C65.6512 32.2337 65.6011 32.2756 65.5664 32.3278C65.5316 32.3801 65.5124 32.4425 65.4525 32.5997Z" fill="black"/>
<path d="M38.0924 1.72153C38.9441 2.15505 39.5352 2.74882 39.7889 3.49654C39.8439 3.65874 39.8819 3.82485 39.9035 3.99434C40.0002 4.64411 40.6741 9.13357 41.4696 13.4213C42.2603 17.6832 43.1887 21.7109 43.4013 22.3374C44.198 24.686 40.4532 28.0794 35.0371 29.9167C29.621 31.7541 24.5844 31.3396 23.7877 28.9909C23.5292 28.229 22.5062 25.8821 21.2612 23.368C21.2612 23.368 21.2613 23.368 21.2612 23.368C20.876 22.59 20.4696 21.796 20.0579 21.028C18.0223 17.2302 15.8369 13.6936 15.2764 12.7959C15.0705 12.5456 14.914 12.27 14.8121 11.9695C13.7975 8.97865 18.5662 4.65734 25.4634 2.31759C26.0174 2.12966 26.5682 1.96021 27.1135 1.80907C31.6591 0.548948 35.8108 0.560266 38.0924 1.72153Z" fill="black"/>
<path d="M20.6673 23.8383C17.4839 26.4459 15.8624 29.2521 16.628 31.5091C16.6709 31.6356 16.7209 31.7589 16.7776 31.879C16.8068 32.0212 16.8447 32.1616 16.8916 32.2998C18.2914 36.4263 27.1404 37.1545 36.6563 33.9264C46.1722 30.6983 52.7516 24.7362 51.3518 20.6098C51.3088 20.4833 51.2589 20.36 51.2022 20.2399C51.173 20.0977 51.1351 19.9573 51.0882 19.819C50.2946 17.4797 47.1069 16.2325 42.7608 16.1792C42.9755 17.2359 43.1858 18.2238 43.3756 19.0828C43.7368 20.7173 44.0127 21.8337 44.1028 22.0994C44.3815 22.9208 44.2408 23.7779 43.8605 24.5736C43.4823 25.3649 42.8481 26.1414 42.0465 26.8678C40.4413 28.3223 38.0558 29.675 35.2751 30.6183C32.4944 31.5616 29.7782 31.9396 27.6194 31.7619C26.5413 31.6732 25.5655 31.4429 24.7839 31.045C23.9979 30.645 23.3648 30.0504 23.0861 29.2289C22.8467 28.5232 21.8716 26.2805 20.6673 23.8383Z" fill="black"/>
</svg>
