<svg width="102" height="121" viewBox="0 0 102 121" fill="none" xmlns="http://www.w3.org/2000/svg">
<path d="M20.9883 50.7428L33.7986 30.3264C33.7986 30.3264 37.3926 25.8515 54.7442 25.5311C70.2575 25.2446 91.0952 38.0549 98.7101 43.1183C100.409 44.2478 100.89 46.4809 99.8814 48.2543L91.7733 62.5134C90.6708 64.4523 88.8089 65.8429 86.6368 66.3497L78.0342 68.357C78.0342 68.357 81.9186 71.1195 83.6387 73.5612C88.1244 79.9286 86.441 87.1722 86.441 87.1722L73.6307 110.191C73.6307 110.191 69.5629 117.209 59.2773 119.697C40.4647 124.247 12.5702 108.238 3.39404 102.502C1.64061 101.406 1.11626 99.1509 2.12178 97.3441L12.739 78.2661C13.2485 77.3507 14.0967 76.6717 15.1015 76.375L26.6005 72.9797C26.6005 72.9797 19.9047 69.7496 18.5863 63.1528C17.387 57.1517 20.9883 50.7428 20.9883 50.7428Z" fill="#90CCF9"/>
<path d="M54.5769 72.5273C55.8399 75.5224 57.9857 78.276 60.921 80.366C68.6758 85.8876 79.0045 84.6867 83.9908 77.6837C84.3861 77.1285 84.736 76.5535 85.0412 75.9626C84.6591 75.159 84.1965 74.3534 83.6386 73.5614C82.0042 71.2415 78.4162 68.632 78.0623 68.3774L78.027 68.3852C71.4839 69.8199 62.8766 71.507 54.5769 72.5273Z" fill="url(#paint0_radial_291_496)"/>
<path d="M67.5568 69.9646C72.9864 69.9646 85.318 66.7741 88.967 65.797C89.6335 65.6186 90.1963 65.1816 90.542 64.5845L101.255 46.0766C101.601 45.4796 101.429 44.7183 100.857 44.3327C99.6161 43.4965 97.4952 42.0812 96.0081 41.1655C93.7858 39.7973 90.4868 38.0106 90.4868 38.0106C90.4868 38.0106 78.4867 33.3956 72.5761 38.0106C66.1919 42.9953 70.8782 52.8314 68.2044 57.051C66.2912 60.0705 61.4466 61.5635 61.4467 65.2286C61.4467 68.4661 64.7137 69.9646 67.5568 69.9646Z" fill="#FF9921"/>
<path d="M81.3839 45.8395C80.9055 46.178 77.3695 45.1833 77.3524 44.7631C77.3354 44.343 77.3179 44.438 77.4833 44.0514C77.8789 43.1266 81.8623 45.5011 81.3839 45.8395Z" fill="black"/>
<path d="M85.7295 42.7557C85.1564 42.8784 82.2979 40.5715 82.4477 40.1785C82.5975 39.7856 82.544 39.8661 82.8483 39.5759C83.5762 38.8816 86.3025 42.6331 85.7295 42.7557Z" fill="black"/>
<path d="M18.5862 63.1334C17.13 58.0455 20.9882 50.7234 20.9882 50.7234C28.6121 38.0202 57.0818 47.9414 73.2577 56.1372C81.1727 60.1475 85.8768 62.9056 88.2089 64.3512C88.9369 64.8025 88.753 65.8534 87.9202 66.0539C80.5462 67.8291 55.7194 73.5911 41.4008 74.2729C34.8595 74.5844 31.1878 74.5226 27.8959 73.3188C22.6554 71.4025 19.7961 67.3606 18.5862 63.1334Z" fill="#6800EB" fill-opacity="0.15"/>
<path d="M51.3092 120.48C61.8285 120.48 74.206 115.631 74.206 105.112C74.206 93.3324 63.8277 85.8872 53.3101 85.8872C39.0877 85.8872 15.8354 94.12 5.34507 98.1335C3.01054 99.0266 2.73102 102.09 4.87788 103.371C14.3658 109.028 35.5211 120.48 51.3092 120.48Z" fill="#6800EB" fill-opacity="0.15"/>
<path d="M53.8535 85.8032C40.4092 85.8032 19.7648 92.7121 9.40669 96.5203C9.20542 96.5942 9.31582 96.8846 9.52027 96.8199C19.8434 93.5545 40.2014 87.719 53.8535 87.719C61.1211 87.719 67.674 91.7209 70.7349 96.4312C72.4538 99.0762 73.4155 101.611 73.9105 103.22C73.9695 103.411 74.2417 103.368 74.2147 103.169C73.9805 101.449 73.3808 98.7266 71.8448 96.0608C68.7244 90.645 61.5172 85.8032 53.8535 85.8032Z" fill="#3478CD"/>
<path d="M7.59424 105.035L9.6074 106.19C9.6074 106.19 15.7025 103.633 19.9683 101.899C22.4366 100.895 25.8891 99.5944 28.3604 98.6762C28.5562 98.6035 28.4662 98.3168 28.2643 98.3705C25.7483 99.0392 22.2203 100.005 19.5271 100.851C14.8368 102.325 7.59424 105.035 7.59424 105.035Z" fill="#3478CD"/>
<path d="M17.2381 110.249L19.4654 111.343C19.4654 111.343 22.0658 109.818 24.3876 108.656C25.9207 107.889 27.837 107.01 29.2508 106.375C29.4364 106.291 29.338 106.016 29.1421 106.071C27.7036 106.477 25.7601 107.046 24.1074 107.603C21.1962 108.585 17.2381 110.249 17.2381 110.249Z" fill="#3478CD"/>
<path d="M61.4467 49.9503C61.4467 52.1338 59.6765 53.9039 57.493 53.9039C55.3094 53.9039 53.5393 52.1338 53.5393 49.9503C53.5393 47.7667 55.3094 45.9966 57.493 45.9966C59.6765 45.9966 61.4467 47.7667 61.4467 49.9503Z" fill="black"/>
<path d="M57.2224 46.9426C57.4794 47.3071 57.1459 47.9846 56.4774 48.4559C55.809 48.9273 55.0588 49.0139 54.8018 48.6494C54.5448 48.2849 54.8783 47.6073 55.5467 47.136C56.2151 46.6647 56.9654 46.5781 57.2224 46.9426Z" fill="white"/>
<ellipse cx="48.4662" cy="34.978" rx="18.6129" ry="12.0632" transform="rotate(-16.9133 48.4662 34.978)" fill="url(#paint1_radial_291_496)"/>
<path d="M64.8217 25.1909C66.5715 30.349 58.3472 37.8015 46.4524 41.8367C34.5575 45.8718 23.4963 44.9615 21.7465 39.8035C19.9967 34.6454 28.2209 27.1928 40.1158 23.1577C52.0107 19.1225 63.0719 20.0328 64.8217 25.1909Z" fill="black"/>
<path d="M64.4922 24.2025C66.242 29.3605 58.0178 36.8131 46.1229 40.8483C34.228 44.8834 23.1668 43.9731 21.417 38.815C19.6672 33.657 27.8914 26.2044 39.7863 22.1692C51.6812 18.1341 62.7424 19.0444 64.4922 24.2025Z" fill="#4B4B4B"/>
<path d="M54.8836 27.3504C55.8795 30.2862 51.1985 34.5279 44.4284 36.8246C37.6582 39.1213 31.3625 38.6031 30.3666 35.6674C29.9436 34.4202 27.8817 29.776 25.7044 25.7137C22.756 20.213 19.5562 15.1505 19.5562 15.1505L50.4965 4.32136C50.4965 4.32136 51.3939 10.4107 52.469 16.2052C53.4573 21.5327 54.6179 26.5673 54.8836 27.3504Z" fill="black"/>
<path d="M54.8836 27.3504C55.8795 30.2862 51.1985 34.5279 44.4284 36.8246C37.6582 39.1213 31.3625 38.6031 30.3666 35.6674C30.079 34.8195 27.7099 29.6635 27.7099 29.6635C27.7099 29.6635 33.4589 32.2338 42.0343 28.742C50.6098 25.2501 53.2491 20.1975 53.2491 20.1975C53.2491 20.1975 54.7059 26.8265 54.8836 27.3504Z" fill="#C9F3FB"/>
<path d="M50.3681 3.79935C51.6364 7.53794 45.6755 12.9396 37.054 15.8643C28.4326 18.789 20.4154 18.1292 19.1471 14.3906C17.8789 10.652 23.8398 5.25035 32.4613 2.32566C41.0827 -0.59902 49.0999 0.0607729 50.3681 3.79935Z" fill="#4B4B4B"/>
<defs>
<radialGradient id="paint0_radial_291_496" cx="0" cy="0" r="1" gradientUnits="userSpaceOnUse" gradientTransform="translate(69.1807 69.4848) rotate(127.279) scale(14.1606 15.9949)">
<stop stop-color="#3478CD"/>
<stop offset="1" stop-color="#3478CD" stop-opacity="0"/>
</radialGradient>
<radialGradient id="paint1_radial_291_496" cx="0" cy="0" r="1" gradientUnits="userSpaceOnUse" gradientTransform="translate(48.4662 34.978) rotate(90) scale(12.0632 18.6129)">
<stop offset="0.08" stop-color="#3478CD"/>
<stop offset="1" stop-color="#3478CD" stop-opacity="0"/>
</radialGradient>
</defs>
</svg>
