<svg width="102" height="121" viewBox="0 0 102 121" fill="none" xmlns="http://www.w3.org/2000/svg">
<path fill-rule="evenodd" clip-rule="evenodd" d="M20.1689 50.743L24.403 44.0985C25.8711 44.6756 27.6169 45.0345 29.5439 45.1906C34.2406 45.5712 40.2 44.7622 46.3323 42.7138C52.4647 40.6655 57.6939 37.7372 61.186 34.6213C62.9309 33.0644 64.2767 31.4299 65.0679 29.8C65.4965 28.9172 65.7694 28.0187 65.8441 27.1299C73.1957 29.0917 80.7498 32.5708 87.0463 35.9515C86.1402 35.736 85.1253 35.528 84.0503 35.3647C80.2242 34.7834 75.3172 34.7165 71.9821 37.2806C68.3615 40.0641 67.9472 44.1855 67.9875 47.8277C67.9964 48.6373 68.0261 49.3976 68.0545 50.1263C68.0933 51.1196 68.1298 52.0547 68.1084 52.9755C68.0722 54.5365 67.861 55.725 67.3267 56.5553C66.9141 57.1965 66.3234 57.7859 65.6158 58.385C65.264 58.6828 64.8941 58.9743 64.5111 59.2735L64.3705 59.3833C64.0356 59.6447 63.6912 59.9134 63.3587 60.1863C61.8775 61.402 60.3175 62.9365 60.3175 65.2285C60.3175 67.2113 61.3537 68.6629 62.7572 69.5817C64.1321 70.4818 65.8743 70.8905 67.4634 70.8905C70.1353 70.8905 74.2974 70.1811 78.2889 69.3478C78.588 69.2853 78.8866 69.2221 79.1842 69.1582C80.4817 70.1566 82.6291 71.9305 83.7959 73.5614C88.3515 79.9289 86.6419 87.1724 86.6419 87.1724L73.6318 110.191C73.6318 110.191 69.5007 117.209 59.0548 119.697C46.8886 122.594 30.9823 117.155 18.6262 111.341C18.7407 111.275 21.3161 109.792 23.6212 108.657C24.6051 108.172 25.7444 107.643 26.8121 107.158C27.1639 106.998 26.9766 106.487 26.6051 106.596C25.5304 106.908 24.3768 107.258 23.3366 107.604C20.38 108.585 16.3602 110.249 16.3602 110.249L18.2542 111.165C10.4524 107.468 4.11218 103.652 1.10134 101.756C0.00908922 101.069 -0.311978 99.6803 0.318455 98.5649L12.0999 77.7198C12.4193 77.1547 12.9512 76.7355 13.5811 76.5523L25.8686 72.9799C25.8686 72.9799 19.0684 69.7498 17.7295 63.153C16.5115 57.1519 20.1689 50.743 20.1689 50.743ZM61.2579 49.9503C61.2579 52.1338 59.4602 53.9039 57.2426 53.9039C55.025 53.9039 53.2273 52.1338 53.2273 49.9503C53.2273 47.7667 55.025 45.9966 57.2426 45.9966C59.4602 45.9966 61.2579 47.7667 61.2579 49.9503ZM53.5464 85.8036C42.0602 85.8037 25.3992 90.693 14.1358 94.5126C13.75 94.6434 13.9414 95.1848 14.3328 95.071C25.5119 91.8209 41.9225 87.7194 53.5464 87.7194C60.9273 87.7194 67.5824 91.7213 70.691 96.4316C71.9652 98.3623 72.8297 100.234 73.3992 101.73C73.5331 102.082 74.0288 101.986 73.9488 101.619C73.5998 100.018 72.9667 98.024 71.8182 96.0613C68.6492 90.6454 61.3296 85.8036 53.5464 85.8036ZM6.56606 105.036L8.61059 106.19C8.61059 106.19 14.8008 103.633 19.133 101.899C20.8149 101.226 22.9468 100.419 24.9258 99.6831C25.2977 99.5449 25.1275 99.0156 24.7441 99.1193C22.7189 99.6671 20.5126 100.286 18.6849 100.851C13.9215 102.325 6.56606 105.036 6.56606 105.036Z" fill="white"/>
<path fill-rule="evenodd" clip-rule="evenodd" d="M89.9643 65.2381C89.4304 65.6183 88.8201 65.8952 88.1647 66.0458L78.1938 68.421C74.1634 69.2651 70.0451 69.9645 67.4634 69.9645C64.5759 69.9645 61.2579 68.466 61.2579 65.2285C61.2579 62.9942 63.0864 61.5671 64.9542 60.1093C66.1503 59.1758 67.3625 58.2297 68.1211 57.051C69.1973 55.3786 69.0994 52.8239 68.9926 50.0388C68.83 45.7966 68.6469 41.0196 72.5609 38.0105C78.5636 33.3955 90.7508 38.0105 90.7508 38.0105C90.7508 38.0105 90.7913 38.0321 90.8663 38.0723C95.012 40.4489 98.328 42.592 100.252 43.8793C101.31 44.5871 101.613 45.9674 100.98 47.0622L93.9021 59.319L91.2853 63.7704C90.9456 64.3482 90.4953 64.8463 89.9643 65.2381ZM81.5061 45.8395C81.0203 46.1779 77.4291 45.1833 77.4118 44.7631C77.4099 44.7183 77.4081 44.6793 77.4064 44.645C77.4004 44.5185 77.3974 44.4553 77.4087 44.3947C77.4201 44.334 77.4457 44.276 77.497 44.16C77.5109 44.1285 77.5267 44.0927 77.5447 44.0514C77.9465 43.1265 81.992 45.5011 81.5061 45.8395ZM82.5865 40.1785C82.4343 40.5714 85.3374 42.8784 85.9194 42.7557C86.5013 42.633 83.7326 38.8816 82.9933 39.5759C82.8388 39.721 82.7751 39.7734 82.7311 39.8387C82.687 39.904 82.6626 39.9821 82.5865 40.1785Z" fill="white"/>
<path d="M47.8533 1.58059C48.9345 2.12249 49.6849 2.86471 50.0069 3.79936C50.0768 4.0021 50.125 4.20974 50.1525 4.4216C50.2752 5.23382 51.1307 10.8456 52.1406 16.2053C53.1444 21.5327 54.3231 26.5673 54.5928 27.3504C55.6043 30.2862 50.8504 34.5279 43.9747 36.8246C37.099 39.1213 30.7052 38.6032 29.6937 35.6674C29.3656 34.715 28.0668 31.7813 26.4864 28.6387C26.4864 28.6387 26.4864 28.6387 26.4864 28.6387C25.9974 27.6662 25.4814 26.6737 24.9588 25.7137C22.3747 20.9665 19.6003 16.5456 18.8887 15.4236C18.6273 15.1107 18.4287 14.7662 18.2993 14.3906C17.0113 10.652 23.0652 5.25035 31.821 2.32567C32.5243 2.09075 33.2236 1.87895 33.9157 1.69002C39.6863 0.114865 44.9569 0.129013 47.8533 1.58059Z" fill="white"/>
<path d="M25.7325 29.2265C21.6911 32.486 19.6326 35.9938 20.6046 38.8151C20.6591 38.9732 20.7225 39.1273 20.7945 39.2774C20.8315 39.4552 20.8797 39.6306 20.9392 39.8035C22.7163 44.9615 33.9499 45.8719 46.0302 41.8367C58.1105 37.8016 66.4629 30.349 64.6859 25.1909C64.6314 25.0328 64.568 24.8787 64.496 24.7285C64.459 24.5507 64.4108 24.3753 64.3513 24.2025C63.3438 21.2783 59.2971 19.7193 53.7798 19.6526C54.0523 20.9736 54.3193 22.2084 54.5603 23.2822C55.0188 25.3253 55.3691 26.7209 55.4834 27.0529C55.8372 28.0797 55.6587 29.1511 55.1759 30.1457C54.6957 31.1349 53.8905 32.1054 52.8729 33.0134C50.8353 34.8315 47.8068 36.5224 44.2768 37.7015C40.7467 38.8807 37.2985 39.3531 34.558 39.1311C33.1893 39.0202 31.9507 38.7323 30.9583 38.235C29.9606 37.735 29.1569 36.9917 28.8031 35.9649C28.4992 35.0827 27.2612 32.2793 25.7325 29.2265Z" fill="white"/>
</svg>
